<?xml version="1.0" encoding="UTF-8" standalone="no"?>
<svg
   xmlns:dc="http://purl.org/dc/elements/1.1/"
   xmlns:cc="http://creativecommons.org/ns#"
   xmlns:rdf="http://www.w3.org/1999/02/22-rdf-syntax-ns#"
   xmlns:svg="http://www.w3.org/2000/svg"
   xmlns="http://www.w3.org/2000/svg"
   xmlns:sodipodi="http://sodipodi.sourceforge.net/DTD/sodipodi-0.dtd"
   xmlns:inkscape="http://www.inkscape.org/namespaces/inkscape"
   inkscape:export-ydpi="96"
   inkscape:export-xdpi="96"
   inkscape:export-filename="C:\Users\Shi\Desktop\notepad.png"
   sodipodi:docname="notepad.svg"
   inkscape:version="1.0 (4035a4fb49, 2020-05-01)"
   id="svg915"
   version="1.1"
   viewBox="0 0 132.29166 171.97917"
   height="650"
   width="500">
  <defs
     id="defs909" />
  <sodipodi:namedview
     inkscape:window-maximized="0"
     inkscape:window-y="18"
     inkscape:window-x="299"
     inkscape:window-height="967"
     inkscape:window-width="1609"
     showborder="true"
     inkscape:showpageshadow="true"
     borderlayer="false"
     inkscape:pagecheckerboard="false"
     units="px"
     showgrid="false"
     inkscape:document-rotation="0"
     inkscape:current-layer="layer2"
     inkscape:document-units="px"
     inkscape:cy="125.69721"
     inkscape:cx="324.74938"
     inkscape:zoom="1.4"
     inkscape:pageshadow="2"
     inkscape:pageopacity="0"
     borderopacity="1.0"
     bordercolor="#666666"
     pagecolor="#ffffff"
     id="base" />
  <metadata
     id="metadata912">
    <rdf:RDF>
      <cc:Work
         rdf:about="">
        <dc:format>image/svg+xml</dc:format>
        <dc:type
           rdf:resource="http://purl.org/dc/dcmitype/StillImage" />
        <dc:title></dc:title>
      </cc:Work>
    </rdf:RDF>
  </metadata>
  <g
     id="layer1"
     inkscape:groupmode="layer"
     inkscape:label="Layer 1">
    <g
       transform="matrix(1.1337815,0,0,1.0237621,-264.68892,18.658943)"
       id="g1557">
      <rect
         style="opacity:0.98;fill:#d3bc5f;stroke:#96875b;stroke-width:0.49116597;stroke-miterlimit:4;stroke-dasharray:none"
         id="rect833"
         width="116.14882"
         height="154.53233"
         x="233.72322"
         y="-6.3294678" />
      <rect
         y="-5.0610328"
         x="233.69945"
         height="15.0211"
         width="116.19637"
         id="rect1652"
         style="opacity:0.98;fill:#d3bc5f;stroke:#96875b;stroke-width:0.485432;stroke-miterlimit:4;stroke-dasharray:none" />
      <rect
         style="opacity:0.98;fill:#d3bc5f;stroke:#96875b;stroke-width:0.535145;stroke-miterlimit:4;stroke-dasharray:none"
         id="rect1654"
         width="116.14645"
         height="152.31091"
         x="233.72441"
         y="-3.7438643" />
      <path
         id="rect835"
         style="opacity:0.98;fill:#ffeeaa;stroke:#96875b;stroke-width:0.264999"
         d="M 233.58923,-2.3173648 H 350.00589 V 149.62907 H 233.58923 Z" />
      <path
         id="rect953"
         style="opacity:0.98;fill:#0088aa;stroke:#96875b;stroke-width:0.295034"
         d="m 233.60424,23.272411 v 0.738736 H 349.991 v -0.738736 z" />
      <path
         d="m 233.60424,38.778943 v 0.738736 H 349.991 v -0.738736 z"
         style="opacity:0.98;fill:#0088aa;stroke:#96875b;stroke-width:0.295034"
         id="path1559" />
      <path
         id="path1561"
         style="opacity:0.98;fill:#0088aa;stroke:#96875b;stroke-width:0.295034"
         d="m 233.60424,54.285475 v 0.738736 H 349.991 v -0.738736 z" />
      <path
         d="m 233.60424,69.792007 v 0.738736 H 349.991 v -0.738736 z"
         style="opacity:0.98;fill:#0088aa;stroke:#96875b;stroke-width:0.295034"
         id="path1563" />
      <path
         id="path1565"
         style="opacity:0.98;fill:#0088aa;stroke:#96875b;stroke-width:0.295034"
         d="m 233.60424,85.298539 v 0.738736 H 349.991 v -0.738736 z" />
      <path
         d="m 233.60424,100.80507 v 0.73874 H 349.991 v -0.73874 z"
         style="opacity:0.98;fill:#0088aa;stroke:#96875b;stroke-width:0.295034"
         id="path1567" />
      <path
         id="path1569"
         style="opacity:0.98;fill:#0088aa;stroke:#96875b;stroke-width:0.295034"
         d="m 233.60424,116.3116 v 0.73874 H 349.991 v -0.73874 z" />
      <path
         d="m 233.60424,131.81813 v 0.73874 H 349.991 v -0.73874 z"
         style="opacity:0.98;fill:#0088aa;stroke:#96875b;stroke-width:0.295034"
         id="path1571" />
      <path
         id="path1573"
         style="opacity:0.98;fill:#0088aa;stroke:#96875b;stroke-width:0.295034"
         d="m 233.60424,147.32467 v 0.73874 H 349.991 v -0.73874 z" />
    </g>
  </g>
  <g
     inkscape:label="metal spiral"
     id="layer2"
     inkscape:groupmode="layer">
    <g
       transform="matrix(1.2400734,0,0,1.0080804,-293.01747,18.338972)"
       id="g1664">
      <ellipse
         ry="3.0459259"
         rx="2.6670127"
         cy="2.467978"
         cx="241.62445"
         id="path1586"
         style="opacity:0.98;fill:#333333;fill-opacity:1;stroke:none;stroke-width:0.245583;stroke-miterlimit:4;stroke-dasharray:none;stroke-opacity:1" />
      <ellipse
         style="opacity:0.98;fill:#b8b8b8;fill-opacity:1;stroke:#8d8282;stroke-width:0.245583;stroke-miterlimit:4;stroke-dasharray:none;stroke-opacity:1"
         id="path837"
         cx="241.57686"
         cy="-7.268939"
         rx="1.7130796"
         ry="10.800243" />
      <path
         d="m 243.258,-5.6054915 a 1.7130796,8.1000908 0 0 1 -1.68095,6.55234451 1.7130796,8.1000908 0 0 1 -1.6814,-6.54666581 1.7130796,8.1000908 0 0 0 -0.0319,1.5479856 1.7130796,8.1000908 0 0 0 1.7133,8.0999516 1.7130796,8.1000908 0 0 0 1.71286,-8.0999516 1.7130796,8.1000908 0 0 0 -0.0319,-1.5536643 z"
         style="opacity:0.98;fill:#666666;fill-opacity:1;stroke:none;stroke-width:0.271694;stroke-miterlimit:4;stroke-dasharray:none;stroke-opacity:1"
         id="ellipse1579" />
      <ellipse
         transform="matrix(0.9629709,-0.26960536,0.22254838,0.97492165,0,0)"
         ry="0.87619746"
         rx="0.237331"
         cy="49.447105"
         cx="239.74362"
         id="path1575"
         style="opacity:0.98;fill:#ffffff;fill-opacity:1;stroke:none;stroke-width:0.179737;stroke-miterlimit:4;stroke-dasharray:none;stroke-opacity:1" />
      <ellipse
         style="opacity:0.98;fill:#ffffff;fill-opacity:1;stroke:none;stroke-width:0.0853116;stroke-miterlimit:4;stroke-dasharray:none;stroke-opacity:1"
         id="ellipse1584"
         cx="243.95189"
         cy="-12.523966"
         rx="0.12770294"
         ry="0.36685655"
         transform="matrix(0.99994348,-0.01063194,0.13764005,0.99048232,0,0)" />
      <path
         id="path1588"
         style="opacity:0.98;fill:#575757;fill-opacity:1;stroke:none;stroke-width:0.220926;stroke-miterlimit:4;stroke-dasharray:none;stroke-opacity:1"
         d="m 243.258,-2.3348846 a 1.7130796,5.355812 0 0 1 -1.68095,4.3324362 1.7130796,5.355812 0 0 1 -1.6814,-4.3286814 1.7130796,5.355812 0 0 0 -0.0319,1.0235342 1.7130796,5.355812 0 0 0 1.7133,5.35572 1.7130796,5.355812 0 0 0 1.71286,-5.35572 1.7130796,5.355812 0 0 0 -0.0319,-1.027289 z" />
    </g>
    <g
       id="g1725"
       transform="matrix(1.2400734,0,0,1.0080804,-273.17372,18.338972)">
      <ellipse
         style="opacity:0.98;fill:#333333;fill-opacity:1;stroke:none;stroke-width:0.245583;stroke-miterlimit:4;stroke-dasharray:none;stroke-opacity:1"
         id="ellipse1713"
         cx="241.62445"
         cy="2.467978"
         rx="2.6670127"
         ry="3.0459259" />
      <ellipse
         ry="10.800243"
         rx="1.7130796"
         cy="-7.268939"
         cx="241.57686"
         id="ellipse1715"
         style="opacity:0.98;fill:#b8b8b8;fill-opacity:1;stroke:#8d8282;stroke-width:0.245583;stroke-miterlimit:4;stroke-dasharray:none;stroke-opacity:1" />
      <path
         id="path1717"
         style="opacity:0.98;fill:#666666;fill-opacity:1;stroke:none;stroke-width:0.271694;stroke-miterlimit:4;stroke-dasharray:none;stroke-opacity:1"
         d="m 243.258,-5.6054915 a 1.7130796,8.1000908 0 0 1 -1.68095,6.55234451 1.7130796,8.1000908 0 0 1 -1.6814,-6.54666581 1.7130796,8.1000908 0 0 0 -0.0319,1.5479856 1.7130796,8.1000908 0 0 0 1.7133,8.0999516 1.7130796,8.1000908 0 0 0 1.71286,-8.0999516 1.7130796,8.1000908 0 0 0 -0.0319,-1.5536643 z" />
      <ellipse
         style="opacity:0.98;fill:#ffffff;fill-opacity:1;stroke:none;stroke-width:0.179737;stroke-miterlimit:4;stroke-dasharray:none;stroke-opacity:1"
         id="ellipse1719"
         cx="239.74362"
         cy="49.447105"
         rx="0.237331"
         ry="0.87619746"
         transform="matrix(0.9629709,-0.26960536,0.22254838,0.97492165,0,0)" />
      <ellipse
         transform="matrix(0.99994348,-0.01063194,0.13764005,0.99048232,0,0)"
         ry="0.36685655"
         rx="0.12770294"
         cy="-12.523966"
         cx="243.95189"
         id="ellipse1721"
         style="opacity:0.98;fill:#ffffff;fill-opacity:1;stroke:none;stroke-width:0.0853116;stroke-miterlimit:4;stroke-dasharray:none;stroke-opacity:1" />
      <path
         d="m 243.258,-2.3348846 a 1.7130796,5.355812 0 0 1 -1.68095,4.3324362 1.7130796,5.355812 0 0 1 -1.6814,-4.3286814 1.7130796,5.355812 0 0 0 -0.0319,1.0235342 1.7130796,5.355812 0 0 0 1.7133,5.35572 1.7130796,5.355812 0 0 0 1.71286,-5.35572 1.7130796,5.355812 0 0 0 -0.0319,-1.027289 z"
         style="opacity:0.98;fill:#575757;fill-opacity:1;stroke:none;stroke-width:0.220926;stroke-miterlimit:4;stroke-dasharray:none;stroke-opacity:1"
         id="path1723" />
    </g>
    <g
       transform="matrix(1.2400734,0,0,1.0080804,-283.0956,18.338972)"
       id="g1739">
      <ellipse
         ry="3.0459259"
         rx="2.6670127"
         cy="2.467978"
         cx="241.62445"
         id="ellipse1727"
         style="opacity:0.98;fill:#333333;fill-opacity:1;stroke:none;stroke-width:0.245583;stroke-miterlimit:4;stroke-dasharray:none;stroke-opacity:1" />
      <ellipse
         style="opacity:0.98;fill:#b8b8b8;fill-opacity:1;stroke:#8d8282;stroke-width:0.245583;stroke-miterlimit:4;stroke-dasharray:none;stroke-opacity:1"
         id="ellipse1729"
         cx="241.57686"
         cy="-7.268939"
         rx="1.7130796"
         ry="10.800243" />
      <path
         d="m 243.258,-5.6054915 a 1.7130796,8.1000908 0 0 1 -1.68095,6.55234451 1.7130796,8.1000908 0 0 1 -1.6814,-6.54666581 1.7130796,8.1000908 0 0 0 -0.0319,1.5479856 1.7130796,8.1000908 0 0 0 1.7133,8.0999516 1.7130796,8.1000908 0 0 0 1.71286,-8.0999516 1.7130796,8.1000908 0 0 0 -0.0319,-1.5536643 z"
         style="opacity:0.98;fill:#666666;fill-opacity:1;stroke:none;stroke-width:0.271694;stroke-miterlimit:4;stroke-dasharray:none;stroke-opacity:1"
         id="path1731" />
      <ellipse
         transform="matrix(0.9629709,-0.26960536,0.22254838,0.97492165,0,0)"
         ry="0.87619746"
         rx="0.237331"
         cy="49.447105"
         cx="239.74362"
         id="ellipse1733"
         style="opacity:0.98;fill:#ffffff;fill-opacity:1;stroke:none;stroke-width:0.179737;stroke-miterlimit:4;stroke-dasharray:none;stroke-opacity:1" />
      <ellipse
         style="opacity:0.98;fill:#ffffff;fill-opacity:1;stroke:none;stroke-width:0.0853116;stroke-miterlimit:4;stroke-dasharray:none;stroke-opacity:1"
         id="ellipse1735"
         cx="243.95189"
         cy="-12.523966"
         rx="0.12770294"
         ry="0.36685655"
         transform="matrix(0.99994348,-0.01063194,0.13764005,0.99048232,0,0)" />
      <path
         id="path1737"
         style="opacity:0.98;fill:#575757;fill-opacity:1;stroke:none;stroke-width:0.220926;stroke-miterlimit:4;stroke-dasharray:none;stroke-opacity:1"
         d="m 243.258,-2.3348846 a 1.7130796,5.355812 0 0 1 -1.68095,4.3324362 1.7130796,5.355812 0 0 1 -1.6814,-4.3286814 1.7130796,5.355812 0 0 0 -0.0319,1.0235342 1.7130796,5.355812 0 0 0 1.7133,5.35572 1.7130796,5.355812 0 0 0 1.71286,-5.35572 1.7130796,5.355812 0 0 0 -0.0319,-1.027289 z" />
    </g>
    <g
       transform="matrix(1.2400734,0,0,1.0080804,-263.25185,18.338972)"
       id="g1753">
      <ellipse
         ry="3.0459259"
         rx="2.6670127"
         cy="2.467978"
         cx="241.62445"
         id="ellipse1741"
         style="opacity:0.98;fill:#333333;fill-opacity:1;stroke:none;stroke-width:0.245583;stroke-miterlimit:4;stroke-dasharray:none;stroke-opacity:1" />
      <ellipse
         style="opacity:0.98;fill:#b8b8b8;fill-opacity:1;stroke:#8d8282;stroke-width:0.245583;stroke-miterlimit:4;stroke-dasharray:none;stroke-opacity:1"
         id="ellipse1743"
         cx="241.57686"
         cy="-7.268939"
         rx="1.7130796"
         ry="10.800243" />
      <path
         d="m 243.258,-5.6054915 a 1.7130796,8.1000908 0 0 1 -1.68095,6.55234451 1.7130796,8.1000908 0 0 1 -1.6814,-6.54666581 1.7130796,8.1000908 0 0 0 -0.0319,1.5479856 1.7130796,8.1000908 0 0 0 1.7133,8.0999516 1.7130796,8.1000908 0 0 0 1.71286,-8.0999516 1.7130796,8.1000908 0 0 0 -0.0319,-1.5536643 z"
         style="opacity:0.98;fill:#666666;fill-opacity:1;stroke:none;stroke-width:0.271694;stroke-miterlimit:4;stroke-dasharray:none;stroke-opacity:1"
         id="path1745" />
      <ellipse
         transform="matrix(0.9629709,-0.26960536,0.22254838,0.97492165,0,0)"
         ry="0.87619746"
         rx="0.237331"
         cy="49.447105"
         cx="239.74362"
         id="ellipse1747"
         style="opacity:0.98;fill:#ffffff;fill-opacity:1;stroke:none;stroke-width:0.179737;stroke-miterlimit:4;stroke-dasharray:none;stroke-opacity:1" />
      <ellipse
         style="opacity:0.98;fill:#ffffff;fill-opacity:1;stroke:none;stroke-width:0.0853116;stroke-miterlimit:4;stroke-dasharray:none;stroke-opacity:1"
         id="ellipse1749"
         cx="243.95189"
         cy="-12.523966"
         rx="0.12770294"
         ry="0.36685655"
         transform="matrix(0.99994348,-0.01063194,0.13764005,0.99048232,0,0)" />
      <path
         id="path1751"
         style="opacity:0.98;fill:#575757;fill-opacity:1;stroke:none;stroke-width:0.220926;stroke-miterlimit:4;stroke-dasharray:none;stroke-opacity:1"
         d="m 243.258,-2.3348846 a 1.7130796,5.355812 0 0 1 -1.68095,4.3324362 1.7130796,5.355812 0 0 1 -1.6814,-4.3286814 1.7130796,5.355812 0 0 0 -0.0319,1.0235342 1.7130796,5.355812 0 0 0 1.7133,5.35572 1.7130796,5.355812 0 0 0 1.71286,-5.35572 1.7130796,5.355812 0 0 0 -0.0319,-1.027289 z" />
    </g>
    <g
       id="g1767"
       transform="matrix(1.2400734,0,0,1.0080804,-253.32997,18.338972)">
      <ellipse
         style="opacity:0.98;fill:#333333;fill-opacity:1;stroke:none;stroke-width:0.245583;stroke-miterlimit:4;stroke-dasharray:none;stroke-opacity:1"
         id="ellipse1755"
         cx="241.62445"
         cy="2.467978"
         rx="2.6670127"
         ry="3.0459259" />
      <ellipse
         ry="10.800243"
         rx="1.7130796"
         cy="-7.268939"
         cx="241.57686"
         id="ellipse1757"
         style="opacity:0.98;fill:#b8b8b8;fill-opacity:1;stroke:#8d8282;stroke-width:0.245583;stroke-miterlimit:4;stroke-dasharray:none;stroke-opacity:1" />
      <path
         id="path1759"
         style="opacity:0.98;fill:#666666;fill-opacity:1;stroke:none;stroke-width:0.271694;stroke-miterlimit:4;stroke-dasharray:none;stroke-opacity:1"
         d="m 243.258,-5.6054915 a 1.7130796,8.1000908 0 0 1 -1.68095,6.55234451 1.7130796,8.1000908 0 0 1 -1.6814,-6.54666581 1.7130796,8.1000908 0 0 0 -0.0319,1.5479856 1.7130796,8.1000908 0 0 0 1.7133,8.0999516 1.7130796,8.1000908 0 0 0 1.71286,-8.0999516 1.7130796,8.1000908 0 0 0 -0.0319,-1.5536643 z" />
      <ellipse
         style="opacity:0.98;fill:#ffffff;fill-opacity:1;stroke:none;stroke-width:0.179737;stroke-miterlimit:4;stroke-dasharray:none;stroke-opacity:1"
         id="ellipse1761"
         cx="239.74362"
         cy="49.447105"
         rx="0.237331"
         ry="0.87619746"
         transform="matrix(0.9629709,-0.26960536,0.22254838,0.97492165,0,0)" />
      <ellipse
         transform="matrix(0.99994348,-0.01063194,0.13764005,0.99048232,0,0)"
         ry="0.36685655"
         rx="0.12770294"
         cy="-12.523966"
         cx="243.95189"
         id="ellipse1763"
         style="opacity:0.98;fill:#ffffff;fill-opacity:1;stroke:none;stroke-width:0.0853116;stroke-miterlimit:4;stroke-dasharray:none;stroke-opacity:1" />
      <path
         d="m 243.258,-2.3348846 a 1.7130796,5.355812 0 0 1 -1.68095,4.3324362 1.7130796,5.355812 0 0 1 -1.6814,-4.3286814 1.7130796,5.355812 0 0 0 -0.0319,1.0235342 1.7130796,5.355812 0 0 0 1.7133,5.35572 1.7130796,5.355812 0 0 0 1.71286,-5.35572 1.7130796,5.355812 0 0 0 -0.0319,-1.027289 z"
         style="opacity:0.98;fill:#575757;fill-opacity:1;stroke:none;stroke-width:0.220926;stroke-miterlimit:4;stroke-dasharray:none;stroke-opacity:1"
         id="path1765" />
    </g>
    <g
       transform="matrix(1.2400734,0,0,1.0080804,-233.48622,18.338972)"
       id="g1781">
      <ellipse
         ry="3.0459259"
         rx="2.6670127"
         cy="2.467978"
         cx="241.62445"
         id="ellipse1769"
         style="opacity:0.98;fill:#333333;fill-opacity:1;stroke:none;stroke-width:0.245583;stroke-miterlimit:4;stroke-dasharray:none;stroke-opacity:1" />
      <ellipse
         style="opacity:0.98;fill:#b8b8b8;fill-opacity:1;stroke:#8d8282;stroke-width:0.245583;stroke-miterlimit:4;stroke-dasharray:none;stroke-opacity:1"
         id="ellipse1771"
         cx="241.57686"
         cy="-7.268939"
         rx="1.7130796"
         ry="10.800243" />
      <path
         d="m 243.258,-5.6054915 a 1.7130796,8.1000908 0 0 1 -1.68095,6.55234451 1.7130796,8.1000908 0 0 1 -1.6814,-6.54666581 1.7130796,8.1000908 0 0 0 -0.0319,1.5479856 1.7130796,8.1000908 0 0 0 1.7133,8.0999516 1.7130796,8.1000908 0 0 0 1.71286,-8.0999516 1.7130796,8.1000908 0 0 0 -0.0319,-1.5536643 z"
         style="opacity:0.98;fill:#666666;fill-opacity:1;stroke:none;stroke-width:0.271694;stroke-miterlimit:4;stroke-dasharray:none;stroke-opacity:1"
         id="path1773" />
      <ellipse
         transform="matrix(0.9629709,-0.26960536,0.22254838,0.97492165,0,0)"
         ry="0.87619746"
         rx="0.237331"
         cy="49.447105"
         cx="239.74362"
         id="ellipse1775"
         style="opacity:0.98;fill:#ffffff;fill-opacity:1;stroke:none;stroke-width:0.179737;stroke-miterlimit:4;stroke-dasharray:none;stroke-opacity:1" />
      <ellipse
         style="opacity:0.98;fill:#ffffff;fill-opacity:1;stroke:none;stroke-width:0.0853116;stroke-miterlimit:4;stroke-dasharray:none;stroke-opacity:1"
         id="ellipse1777"
         cx="243.95189"
         cy="-12.523966"
         rx="0.12770294"
         ry="0.36685655"
         transform="matrix(0.99994348,-0.01063194,0.13764005,0.99048232,0,0)" />
      <path
         id="path1779"
         style="opacity:0.98;fill:#575757;fill-opacity:1;stroke:none;stroke-width:0.220926;stroke-miterlimit:4;stroke-dasharray:none;stroke-opacity:1"
         d="m 243.258,-2.3348846 a 1.7130796,5.355812 0 0 1 -1.68095,4.3324362 1.7130796,5.355812 0 0 1 -1.6814,-4.3286814 1.7130796,5.355812 0 0 0 -0.0319,1.0235342 1.7130796,5.355812 0 0 0 1.7133,5.35572 1.7130796,5.355812 0 0 0 1.71286,-5.35572 1.7130796,5.355812 0 0 0 -0.0319,-1.027289 z" />
    </g>
    <g
       id="g1795"
       transform="matrix(1.2400734,0,0,1.0080804,-243.4081,18.338972)">
      <ellipse
         style="opacity:0.98;fill:#333333;fill-opacity:1;stroke:none;stroke-width:0.245583;stroke-miterlimit:4;stroke-dasharray:none;stroke-opacity:1"
         id="ellipse1783"
         cx="241.62445"
         cy="2.467978"
         rx="2.6670127"
         ry="3.0459259" />
      <ellipse
         ry="10.800243"
         rx="1.7130796"
         cy="-7.268939"
         cx="241.57686"
         id="ellipse1785"
         style="opacity:0.98;fill:#b8b8b8;fill-opacity:1;stroke:#8d8282;stroke-width:0.245583;stroke-miterlimit:4;stroke-dasharray:none;stroke-opacity:1" />
      <path
         id="path1787"
         style="opacity:0.98;fill:#666666;fill-opacity:1;stroke:none;stroke-width:0.271694;stroke-miterlimit:4;stroke-dasharray:none;stroke-opacity:1"
         d="m 243.258,-5.6054915 a 1.7130796,8.1000908 0 0 1 -1.68095,6.55234451 1.7130796,8.1000908 0 0 1 -1.6814,-6.54666581 1.7130796,8.1000908 0 0 0 -0.0319,1.5479856 1.7130796,8.1000908 0 0 0 1.7133,8.0999516 1.7130796,8.1000908 0 0 0 1.71286,-8.0999516 1.7130796,8.1000908 0 0 0 -0.0319,-1.5536643 z" />
      <ellipse
         style="opacity:0.98;fill:#ffffff;fill-opacity:1;stroke:none;stroke-width:0.179737;stroke-miterlimit:4;stroke-dasharray:none;stroke-opacity:1"
         id="ellipse1789"
         cx="239.74362"
         cy="49.447105"
         rx="0.237331"
         ry="0.87619746"
         transform="matrix(0.9629709,-0.26960536,0.22254838,0.97492165,0,0)" />
      <ellipse
         transform="matrix(0.99994348,-0.01063194,0.13764005,0.99048232,0,0)"
         ry="0.36685655"
         rx="0.12770294"
         cy="-12.523966"
         cx="243.95189"
         id="ellipse1791"
         style="opacity:0.98;fill:#ffffff;fill-opacity:1;stroke:none;stroke-width:0.0853116;stroke-miterlimit:4;stroke-dasharray:none;stroke-opacity:1" />
      <path
         d="m 243.258,-2.3348846 a 1.7130796,5.355812 0 0 1 -1.68095,4.3324362 1.7130796,5.355812 0 0 1 -1.6814,-4.3286814 1.7130796,5.355812 0 0 0 -0.0319,1.0235342 1.7130796,5.355812 0 0 0 1.7133,5.35572 1.7130796,5.355812 0 0 0 1.71286,-5.35572 1.7130796,5.355812 0 0 0 -0.0319,-1.027289 z"
         style="opacity:0.98;fill:#575757;fill-opacity:1;stroke:none;stroke-width:0.220926;stroke-miterlimit:4;stroke-dasharray:none;stroke-opacity:1"
         id="path1793" />
    </g>
    <g
       id="g1809"
       transform="matrix(1.2400734,0,0,1.0080804,-223.56435,18.338972)">
      <ellipse
         style="opacity:0.98;fill:#333333;fill-opacity:1;stroke:none;stroke-width:0.245583;stroke-miterlimit:4;stroke-dasharray:none;stroke-opacity:1"
         id="ellipse1797"
         cx="241.62445"
         cy="2.467978"
         rx="2.6670127"
         ry="3.0459259" />
      <ellipse
         ry="10.800243"
         rx="1.7130796"
         cy="-7.268939"
         cx="241.57686"
         id="ellipse1799"
         style="opacity:0.98;fill:#b8b8b8;fill-opacity:1;stroke:#8d8282;stroke-width:0.245583;stroke-miterlimit:4;stroke-dasharray:none;stroke-opacity:1" />
      <path
         id="path1801"
         style="opacity:0.98;fill:#666666;fill-opacity:1;stroke:none;stroke-width:0.271694;stroke-miterlimit:4;stroke-dasharray:none;stroke-opacity:1"
         d="m 243.258,-5.6054915 a 1.7130796,8.1000908 0 0 1 -1.68095,6.55234451 1.7130796,8.1000908 0 0 1 -1.6814,-6.54666581 1.7130796,8.1000908 0 0 0 -0.0319,1.5479856 1.7130796,8.1000908 0 0 0 1.7133,8.0999516 1.7130796,8.1000908 0 0 0 1.71286,-8.0999516 1.7130796,8.1000908 0 0 0 -0.0319,-1.5536643 z" />
      <ellipse
         style="opacity:0.98;fill:#ffffff;fill-opacity:1;stroke:none;stroke-width:0.179737;stroke-miterlimit:4;stroke-dasharray:none;stroke-opacity:1"
         id="ellipse1803"
         cx="239.74362"
         cy="49.447105"
         rx="0.237331"
         ry="0.87619746"
         transform="matrix(0.9629709,-0.26960536,0.22254838,0.97492165,0,0)" />
      <ellipse
         transform="matrix(0.99994348,-0.01063194,0.13764005,0.99048232,0,0)"
         ry="0.36685655"
         rx="0.12770294"
         cy="-12.523966"
         cx="243.95189"
         id="ellipse1805"
         style="opacity:0.98;fill:#ffffff;fill-opacity:1;stroke:none;stroke-width:0.0853116;stroke-miterlimit:4;stroke-dasharray:none;stroke-opacity:1" />
      <path
         d="m 243.258,-2.3348846 a 1.7130796,5.355812 0 0 1 -1.68095,4.3324362 1.7130796,5.355812 0 0 1 -1.6814,-4.3286814 1.7130796,5.355812 0 0 0 -0.0319,1.0235342 1.7130796,5.355812 0 0 0 1.7133,5.35572 1.7130796,5.355812 0 0 0 1.71286,-5.35572 1.7130796,5.355812 0 0 0 -0.0319,-1.027289 z"
         style="opacity:0.98;fill:#575757;fill-opacity:1;stroke:none;stroke-width:0.220926;stroke-miterlimit:4;stroke-dasharray:none;stroke-opacity:1"
         id="path1807" />
    </g>
    <g
       id="g1823"
       transform="matrix(1.2400734,0,0,1.0080804,-213.64247,18.338972)">
      <ellipse
         style="opacity:0.98;fill:#333333;fill-opacity:1;stroke:none;stroke-width:0.245583;stroke-miterlimit:4;stroke-dasharray:none;stroke-opacity:1"
         id="ellipse1811"
         cx="241.62445"
         cy="2.467978"
         rx="2.6670127"
         ry="3.0459259" />
      <ellipse
         ry="10.800243"
         rx="1.7130796"
         cy="-7.268939"
         cx="241.57686"
         id="ellipse1813"
         style="opacity:0.98;fill:#b8b8b8;fill-opacity:1;stroke:#8d8282;stroke-width:0.245583;stroke-miterlimit:4;stroke-dasharray:none;stroke-opacity:1" />
      <path
         id="path1815"
         style="opacity:0.98;fill:#666666;fill-opacity:1;stroke:none;stroke-width:0.271694;stroke-miterlimit:4;stroke-dasharray:none;stroke-opacity:1"
         d="m 243.258,-5.6054915 a 1.7130796,8.1000908 0 0 1 -1.68095,6.55234451 1.7130796,8.1000908 0 0 1 -1.6814,-6.54666581 1.7130796,8.1000908 0 0 0 -0.0319,1.5479856 1.7130796,8.1000908 0 0 0 1.7133,8.0999516 1.7130796,8.1000908 0 0 0 1.71286,-8.0999516 1.7130796,8.1000908 0 0 0 -0.0319,-1.5536643 z" />
      <ellipse
         style="opacity:0.98;fill:#ffffff;fill-opacity:1;stroke:none;stroke-width:0.179737;stroke-miterlimit:4;stroke-dasharray:none;stroke-opacity:1"
         id="ellipse1817"
         cx="239.74362"
         cy="49.447105"
         rx="0.237331"
         ry="0.87619746"
         transform="matrix(0.9629709,-0.26960536,0.22254838,0.97492165,0,0)" />
      <ellipse
         transform="matrix(0.99994348,-0.01063194,0.13764005,0.99048232,0,0)"
         ry="0.36685655"
         rx="0.12770294"
         cy="-12.523966"
         cx="243.95189"
         id="ellipse1819"
         style="opacity:0.98;fill:#ffffff;fill-opacity:1;stroke:none;stroke-width:0.0853116;stroke-miterlimit:4;stroke-dasharray:none;stroke-opacity:1" />
      <path
         d="m 243.258,-2.3348846 a 1.7130796,5.355812 0 0 1 -1.68095,4.3324362 1.7130796,5.355812 0 0 1 -1.6814,-4.3286814 1.7130796,5.355812 0 0 0 -0.0319,1.0235342 1.7130796,5.355812 0 0 0 1.7133,5.35572 1.7130796,5.355812 0 0 0 1.71286,-5.35572 1.7130796,5.355812 0 0 0 -0.0319,-1.027289 z"
         style="opacity:0.98;fill:#575757;fill-opacity:1;stroke:none;stroke-width:0.220926;stroke-miterlimit:4;stroke-dasharray:none;stroke-opacity:1"
         id="path1821" />
    </g>
    <g
       transform="matrix(1.2400734,0,0,1.0080804,-203.72059,18.338972)"
       id="g1837">
      <ellipse
         ry="3.0459259"
         rx="2.6670127"
         cy="2.467978"
         cx="241.62445"
         id="ellipse1825"
         style="opacity:0.98;fill:#333333;fill-opacity:1;stroke:none;stroke-width:0.245583;stroke-miterlimit:4;stroke-dasharray:none;stroke-opacity:1" />
      <ellipse
         style="opacity:0.98;fill:#b8b8b8;fill-opacity:1;stroke:#8d8282;stroke-width:0.245583;stroke-miterlimit:4;stroke-dasharray:none;stroke-opacity:1"
         id="ellipse1827"
         cx="241.57686"
         cy="-7.268939"
         rx="1.7130796"
         ry="10.800243" />
      <path
         d="m 243.258,-5.6054915 a 1.7130796,8.1000908 0 0 1 -1.68095,6.55234451 1.7130796,8.1000908 0 0 1 -1.6814,-6.54666581 1.7130796,8.1000908 0 0 0 -0.0319,1.5479856 1.7130796,8.1000908 0 0 0 1.7133,8.0999516 1.7130796,8.1000908 0 0 0 1.71286,-8.0999516 1.7130796,8.1000908 0 0 0 -0.0319,-1.5536643 z"
         style="opacity:0.98;fill:#666666;fill-opacity:1;stroke:none;stroke-width:0.271694;stroke-miterlimit:4;stroke-dasharray:none;stroke-opacity:1"
         id="path1829" />
      <ellipse
         transform="matrix(0.9629709,-0.26960536,0.22254838,0.97492165,0,0)"
         ry="0.87619746"
         rx="0.237331"
         cy="49.447105"
         cx="239.74362"
         id="ellipse1831"
         style="opacity:0.98;fill:#ffffff;fill-opacity:1;stroke:none;stroke-width:0.179737;stroke-miterlimit:4;stroke-dasharray:none;stroke-opacity:1" />
      <ellipse
         style="opacity:0.98;fill:#ffffff;fill-opacity:1;stroke:none;stroke-width:0.0853116;stroke-miterlimit:4;stroke-dasharray:none;stroke-opacity:1"
         id="ellipse1833"
         cx="243.95189"
         cy="-12.523966"
         rx="0.12770294"
         ry="0.36685655"
         transform="matrix(0.99994348,-0.01063194,0.13764005,0.99048232,0,0)" />
      <path
         id="path1835"
         style="opacity:0.98;fill:#575757;fill-opacity:1;stroke:none;stroke-width:0.220926;stroke-miterlimit:4;stroke-dasharray:none;stroke-opacity:1"
         d="m 243.258,-2.3348846 a 1.7130796,5.355812 0 0 1 -1.68095,4.3324362 1.7130796,5.355812 0 0 1 -1.6814,-4.3286814 1.7130796,5.355812 0 0 0 -0.0319,1.0235342 1.7130796,5.355812 0 0 0 1.7133,5.35572 1.7130796,5.355812 0 0 0 1.71286,-5.35572 1.7130796,5.355812 0 0 0 -0.0319,-1.027289 z" />
    </g>
    <g
       id="g1851"
       transform="matrix(1.2400734,0,0,1.0080804,-183.87684,18.338972)">
      <ellipse
         style="opacity:0.98;fill:#333333;fill-opacity:1;stroke:none;stroke-width:0.245583;stroke-miterlimit:4;stroke-dasharray:none;stroke-opacity:1"
         id="ellipse1839"
         cx="241.62445"
         cy="2.467978"
         rx="2.6670127"
         ry="3.0459259" />
      <ellipse
         ry="10.800243"
         rx="1.7130796"
         cy="-7.268939"
         cx="241.57686"
         id="ellipse1841"
         style="opacity:0.98;fill:#b8b8b8;fill-opacity:1;stroke:#8d8282;stroke-width:0.245583;stroke-miterlimit:4;stroke-dasharray:none;stroke-opacity:1" />
      <path
         id="path1843"
         style="opacity:0.98;fill:#666666;fill-opacity:1;stroke:none;stroke-width:0.271694;stroke-miterlimit:4;stroke-dasharray:none;stroke-opacity:1"
         d="m 243.258,-5.6054915 a 1.7130796,8.1000908 0 0 1 -1.68095,6.55234451 1.7130796,8.1000908 0 0 1 -1.6814,-6.54666581 1.7130796,8.1000908 0 0 0 -0.0319,1.5479856 1.7130796,8.1000908 0 0 0 1.7133,8.0999516 1.7130796,8.1000908 0 0 0 1.71286,-8.0999516 1.7130796,8.1000908 0 0 0 -0.0319,-1.5536643 z" />
      <ellipse
         style="opacity:0.98;fill:#ffffff;fill-opacity:1;stroke:none;stroke-width:0.179737;stroke-miterlimit:4;stroke-dasharray:none;stroke-opacity:1"
         id="ellipse1845"
         cx="239.74362"
         cy="49.447105"
         rx="0.237331"
         ry="0.87619746"
         transform="matrix(0.9629709,-0.26960536,0.22254838,0.97492165,0,0)" />
      <ellipse
         transform="matrix(0.99994348,-0.01063194,0.13764005,0.99048232,0,0)"
         ry="0.36685655"
         rx="0.12770294"
         cy="-12.523966"
         cx="243.95189"
         id="ellipse1847"
         style="opacity:0.98;fill:#ffffff;fill-opacity:1;stroke:none;stroke-width:0.0853116;stroke-miterlimit:4;stroke-dasharray:none;stroke-opacity:1" />
      <path
         d="m 243.258,-2.3348846 a 1.7130796,5.355812 0 0 1 -1.68095,4.3324362 1.7130796,5.355812 0 0 1 -1.6814,-4.3286814 1.7130796,5.355812 0 0 0 -0.0319,1.0235342 1.7130796,5.355812 0 0 0 1.7133,5.35572 1.7130796,5.355812 0 0 0 1.71286,-5.35572 1.7130796,5.355812 0 0 0 -0.0319,-1.027289 z"
         style="opacity:0.98;fill:#575757;fill-opacity:1;stroke:none;stroke-width:0.220926;stroke-miterlimit:4;stroke-dasharray:none;stroke-opacity:1"
         id="path1849" />
    </g>
    <g
       transform="matrix(1.2400734,0,0,1.0080804,-193.79872,18.338972)"
       id="g1865">
      <ellipse
         ry="3.0459259"
         rx="2.6670127"
         cy="2.467978"
         cx="241.62445"
         id="ellipse1853"
         style="opacity:0.98;fill:#333333;fill-opacity:1;stroke:none;stroke-width:0.245583;stroke-miterlimit:4;stroke-dasharray:none;stroke-opacity:1" />
      <ellipse
         style="opacity:0.98;fill:#b8b8b8;fill-opacity:1;stroke:#8d8282;stroke-width:0.245583;stroke-miterlimit:4;stroke-dasharray:none;stroke-opacity:1"
         id="ellipse1855"
         cx="241.57686"
         cy="-7.268939"
         rx="1.7130796"
         ry="10.800243" />
      <path
         d="m 243.258,-5.6054915 a 1.7130796,8.1000908 0 0 1 -1.68095,6.55234451 1.7130796,8.1000908 0 0 1 -1.6814,-6.54666581 1.7130796,8.1000908 0 0 0 -0.0319,1.5479856 1.7130796,8.1000908 0 0 0 1.7133,8.0999516 1.7130796,8.1000908 0 0 0 1.71286,-8.0999516 1.7130796,8.1000908 0 0 0 -0.0319,-1.5536643 z"
         style="opacity:0.98;fill:#666666;fill-opacity:1;stroke:none;stroke-width:0.271694;stroke-miterlimit:4;stroke-dasharray:none;stroke-opacity:1"
         id="path1857" />
      <ellipse
         transform="matrix(0.9629709,-0.26960536,0.22254838,0.97492165,0,0)"
         ry="0.87619746"
         rx="0.237331"
         cy="49.447105"
         cx="239.74362"
         id="ellipse1859"
         style="opacity:0.98;fill:#ffffff;fill-opacity:1;stroke:none;stroke-width:0.179737;stroke-miterlimit:4;stroke-dasharray:none;stroke-opacity:1" />
      <ellipse
         style="opacity:0.98;fill:#ffffff;fill-opacity:1;stroke:none;stroke-width:0.0853116;stroke-miterlimit:4;stroke-dasharray:none;stroke-opacity:1"
         id="ellipse1861"
         cx="243.95189"
         cy="-12.523966"
         rx="0.12770294"
         ry="0.36685655"
         transform="matrix(0.99994348,-0.01063194,0.13764005,0.99048232,0,0)" />
      <path
         id="path1863"
         style="opacity:0.98;fill:#575757;fill-opacity:1;stroke:none;stroke-width:0.220926;stroke-miterlimit:4;stroke-dasharray:none;stroke-opacity:1"
         d="m 243.258,-2.3348846 a 1.7130796,5.355812 0 0 1 -1.68095,4.3324362 1.7130796,5.355812 0 0 1 -1.6814,-4.3286814 1.7130796,5.355812 0 0 0 -0.0319,1.0235342 1.7130796,5.355812 0 0 0 1.7133,5.35572 1.7130796,5.355812 0 0 0 1.71286,-5.35572 1.7130796,5.355812 0 0 0 -0.0319,-1.027289 z" />
    </g>
    <g
       transform="matrix(1.2400734,0,0,1.0080804,-173.95497,18.338972)"
       id="g1879">
      <ellipse
         ry="3.0459259"
         rx="2.6670127"
         cy="2.467978"
         cx="241.62445"
         id="ellipse1867"
         style="opacity:0.98;fill:#333333;fill-opacity:1;stroke:none;stroke-width:0.245583;stroke-miterlimit:4;stroke-dasharray:none;stroke-opacity:1" />
      <ellipse
         style="opacity:0.98;fill:#b8b8b8;fill-opacity:1;stroke:#8d8282;stroke-width:0.245583;stroke-miterlimit:4;stroke-dasharray:none;stroke-opacity:1"
         id="ellipse1869"
         cx="241.57686"
         cy="-7.268939"
         rx="1.7130796"
         ry="10.800243" />
      <path
         d="m 243.258,-5.6054915 a 1.7130796,8.1000908 0 0 1 -1.68095,6.55234451 1.7130796,8.1000908 0 0 1 -1.6814,-6.54666581 1.7130796,8.1000908 0 0 0 -0.0319,1.5479856 1.7130796,8.1000908 0 0 0 1.7133,8.0999516 1.7130796,8.1000908 0 0 0 1.71286,-8.0999516 1.7130796,8.1000908 0 0 0 -0.0319,-1.5536643 z"
         style="opacity:0.98;fill:#666666;fill-opacity:1;stroke:none;stroke-width:0.271694;stroke-miterlimit:4;stroke-dasharray:none;stroke-opacity:1"
         id="path1871" />
      <ellipse
         transform="matrix(0.9629709,-0.26960536,0.22254838,0.97492165,0,0)"
         ry="0.87619746"
         rx="0.237331"
         cy="49.447105"
         cx="239.74362"
         id="ellipse1873"
         style="opacity:0.98;fill:#ffffff;fill-opacity:1;stroke:none;stroke-width:0.179737;stroke-miterlimit:4;stroke-dasharray:none;stroke-opacity:1" />
      <ellipse
         style="opacity:0.98;fill:#ffffff;fill-opacity:1;stroke:none;stroke-width:0.0853116;stroke-miterlimit:4;stroke-dasharray:none;stroke-opacity:1"
         id="ellipse1875"
         cx="243.95189"
         cy="-12.523966"
         rx="0.12770294"
         ry="0.36685655"
         transform="matrix(0.99994348,-0.01063194,0.13764005,0.99048232,0,0)" />
      <path
         id="path1877"
         style="opacity:0.98;fill:#575757;fill-opacity:1;stroke:none;stroke-width:0.220926;stroke-miterlimit:4;stroke-dasharray:none;stroke-opacity:1"
         d="m 243.258,-2.3348846 a 1.7130796,5.355812 0 0 1 -1.68095,4.3324362 1.7130796,5.355812 0 0 1 -1.6814,-4.3286814 1.7130796,5.355812 0 0 0 -0.0319,1.0235342 1.7130796,5.355812 0 0 0 1.7133,5.35572 1.7130796,5.355812 0 0 0 1.71286,-5.35572 1.7130796,5.355812 0 0 0 -0.0319,-1.027289 z" />
    </g>
  </g>
</svg>
